M48
METRIC,TZ
T1C1.000
T2C3.000
%
G90
G05
T1
X124460Y-103632
X124460Y-106172
X127000Y-103632
X127000Y-106172
X129540Y-103632
X129540Y-106172
X132080Y-103632
X132080Y-106172
X134620Y-103632
X134620Y-106172
X137160Y-103632
X137160Y-106172
X139700Y-103632
X139700Y-106172
X142240Y-103632
X142240Y-106172
X144780Y-103632
X144780Y-106172
X147320Y-103632
X147320Y-106172
X149860Y-103632
X149860Y-106172
X152400Y-103632
X152400Y-106172
X154940Y-103632
X154940Y-106172
X157480Y-103632
X157480Y-106172
X160020Y-103632
X160020Y-106172
X162560Y-103632
X162560Y-106172
X165100Y-103632
X165100Y-106172
X167640Y-103632
X167640Y-106172
X170180Y-103632
X170180Y-106172
X172720Y-103632
X172720Y-106172
X147320Y-97028
X147320Y-99568
X149860Y-97028
X149860Y-99568
X152400Y-97028
X152400Y-99568
X154940Y-97028
X154940Y-99568
X157480Y-97028
X157480Y-99568
X160020Y-97028
X160020Y-99568
X162560Y-97028
X162560Y-99568
X165100Y-97028
X165100Y-99568
X167640Y-97028
X167640Y-99568
X170180Y-97028
X170180Y-99568
X172720Y-97028
X172720Y-99568
X175260Y-97028
X175260Y-99568
X177800Y-97028
X177800Y-99568
T2
X119634Y-104902
X177546Y-104902
T0
M30
