G04 #@! TF.GenerationSoftware,KiCad,Pcbnew,5.0.0+dfsg1-2*
G04 #@! TF.CreationDate,2018-09-04T12:21:54+01:00*
G04 #@! TF.ProjectId,zero_boot_screen,7A65726F5F626F6F745F73637265656E,rev?*
G04 #@! TF.SameCoordinates,Original*
G04 #@! TF.FileFunction,Soldermask,Top*
G04 #@! TF.FilePolarity,Negative*
%FSLAX46Y46*%
G04 Gerber Fmt 4.6, Leading zero omitted, Abs format (unit mm)*
G04 Created by KiCad (PCBNEW 5.0.0+dfsg1-2) date Tue Sep  4 12:21:54 2018*
%MOMM*%
%LPD*%
G01*
G04 APERTURE LIST*
%ADD10C,2.000000*%
%ADD11C,3.900000*%
G04 APERTURE END LIST*
D10*
G04 #@! TO.C,U2*
X149860000Y-103632000D03*
X149860000Y-106172000D03*
X152400000Y-103632000D03*
X154940000Y-103632000D03*
X157480000Y-103632000D03*
X160020000Y-103632000D03*
X162560000Y-103632000D03*
X165100000Y-103632000D03*
X167640000Y-103632000D03*
X170180000Y-103632000D03*
X172720000Y-103632000D03*
X152400000Y-106172000D03*
X154940000Y-106172000D03*
X157480000Y-106172000D03*
X160020000Y-106172000D03*
X162560000Y-106172000D03*
X165100000Y-106172000D03*
X167640000Y-106172000D03*
X170180000Y-106172000D03*
X172720000Y-106172000D03*
X147320000Y-103632000D03*
X147320000Y-106172000D03*
X144780000Y-103632000D03*
X144780000Y-106172000D03*
X142240000Y-103632000D03*
X142240000Y-106172000D03*
X139700000Y-103632000D03*
X139700000Y-106172000D03*
X137160000Y-103632000D03*
X137160000Y-106172000D03*
X134620000Y-103632000D03*
X134620000Y-106172000D03*
X132080000Y-103632000D03*
X132080000Y-106172000D03*
X129540000Y-103632000D03*
X129540000Y-106172000D03*
X127000000Y-103632000D03*
X127000000Y-106172000D03*
X124460000Y-103632000D03*
X124460000Y-106172000D03*
G04 #@! TD*
G04 #@! TO.C,U1*
X154940000Y-97028000D03*
X154940000Y-99568000D03*
X157480000Y-97028000D03*
X160020000Y-97028000D03*
X162560000Y-97028000D03*
X165100000Y-97028000D03*
X167640000Y-97028000D03*
X170180000Y-97028000D03*
X172720000Y-97028000D03*
X175260000Y-97028000D03*
X177800000Y-97028000D03*
X157480000Y-99568000D03*
X160020000Y-99568000D03*
X162560000Y-99568000D03*
X165100000Y-99568000D03*
X167640000Y-99568000D03*
X170180000Y-99568000D03*
X172720000Y-99568000D03*
X175260000Y-99568000D03*
X177800000Y-99568000D03*
X152400000Y-97028000D03*
X152400000Y-99568000D03*
X149860000Y-97028000D03*
X149860000Y-99568000D03*
X147320000Y-97028000D03*
X147320000Y-99568000D03*
G04 #@! TD*
D11*
G04 #@! TO.C,U3*
X177546000Y-104902000D03*
G04 #@! TD*
G04 #@! TO.C,U4*
X119634000Y-104902000D03*
G04 #@! TD*
M02*
